<?xml version="1.0" encoding="UTF-8" standalone="no"?>
<svg width="8px" height="18px" viewBox="0 0 8 18" version="1.1" xmlns="http://www.w3.org/2000/svg" xmlns:xlink="http://www.w3.org/1999/xlink">
    <!-- Generator: Sketch 41.1 (35376) - http://www.bohemiancoding.com/sketch -->
    <title>fb</title>
    <desc>Created with Sketch.</desc>
    <defs></defs>
    <g id="Page-1" stroke="none" stroke-width="1" fill="none" fill-rule="evenodd">
        <path d="M5.1328125,6.15625 L7.71428571,6.15625 L7.41294643,9.00892857 L5.1328125,9.00892857 L5.1328125,17.2857143 L1.70758929,17.2857143 L1.70758929,9.00892857 L0,9.00892857 L0,6.15625 L1.70758929,6.15625 L1.70758929,4.43861607 C1.70758929,3.21985998 1.99553283,2.29743617 2.57142857,1.67131696 C3.14732431,1.04519776 4.09485948,0.732142857 5.4140625,0.732142857 L7.69419643,0.732142857 L7.69419643,3.58482143 L6.26785714,3.58482143 C6.00669512,3.58482143 5.79743382,3.6065846 5.64006696,3.65011161 C5.48270011,3.69363861 5.36886196,3.77232086 5.29854911,3.88616071 C5.22823626,4.00000057 5.18303581,4.11551281 5.16294643,4.23270089 C5.14285704,4.34988898 5.1328125,4.51562393 5.1328125,4.72991071 L5.1328125,6.15625 Z" id="fb" fill="#FFFFFF"></path>
    </g>
</svg>