<?xml version="1.0" encoding="UTF-8" standalone="no"?>
<svg width="17px" height="13px" viewBox="0 0 17 13" version="1.1" xmlns="http://www.w3.org/2000/svg" xmlns:xlink="http://www.w3.org/1999/xlink">
    <!-- Generator: Sketch 41.1 (35376) - http://www.bohemiancoding.com/sketch -->
    <title>twitter</title>
    <desc>Created with Sketch.</desc>
    <defs></defs>
    <g id="Page-1" stroke="none" stroke-width="1" fill="none" fill-rule="evenodd">
        <path d="M16.2723214,1.66964286 C15.8236585,2.32589614 15.2812532,2.88504233 14.6450893,3.34709821 C14.6517857,3.44084868 14.6551339,3.58147228 14.6551339,3.76897321 C14.6551339,4.63951328 14.5279031,5.5083662 14.2734375,6.37555804 C14.0189719,7.24274987 13.6322571,8.0747728 13.1132812,8.87165179 C12.5943054,9.66853077 11.9765661,10.3733228 11.2600446,10.9860491 C10.5435232,11.5987754 9.67969256,12.0876098 8.66852679,12.452567 C7.65736102,12.8175241 6.57589862,13 5.42410714,13 C3.60936593,13 1.94866825,12.5145138 0.441964286,11.5435268 C0.676340458,11.5703126 0.93749856,11.5837054 1.22544643,11.5837054 C2.73215039,11.5837054 4.07477089,11.1216564 5.25334821,10.1975446 C4.5502197,10.1841517 3.92076171,9.96819406 3.36495536,9.54966518 C2.80914901,9.1311363 2.4274564,8.59710146 2.21986607,7.94754464 C2.44084932,7.98102695 2.64508835,7.99776786 2.83258929,7.99776786 C3.12053715,7.99776786 3.40513252,7.96093787 3.68638393,7.88727679 C2.93638018,7.73325816 2.31529264,7.359936 1.82310268,6.76729911 C1.33091272,6.17466222 1.08482143,5.48661106 1.08482143,4.703125 L1.08482143,4.66294643 C1.54018085,4.91741199 2.02901525,5.0546874 2.55133929,5.07477679 C2.10937279,4.78013246 1.75781381,4.39509166 1.49665179,3.91964286 C1.23548977,3.44419405 1.10491071,2.92857421 1.10491071,2.37276786 C1.10491071,1.7834792 1.25223067,1.23772573 1.546875,0.735491071 C2.35714691,1.73326392 3.34318616,2.53180504 4.50502232,3.13113839 C5.66685849,3.73047175 6.91070766,4.06361574 8.23660714,4.13058036 C8.18303545,3.8761148 8.15625,3.62834942 8.15625,3.38727679 C8.15625,2.48995087 8.47265309,1.72489156 9.10546875,1.09207589 C9.73828441,0.459260229 10.5033437,0.142857143 11.4006696,0.142857143 C12.3381743,0.142857143 13.128345,0.484371585 13.7712054,1.16741071 C14.5011197,1.02678501 15.1874968,0.765626908 15.8303571,0.383928571 C15.582588,1.15402171 15.1071464,1.74999789 14.4040179,2.171875 C15.0267888,2.10491038 15.6495505,1.93750134 16.2723214,1.66964286 Z" id="twitter" fill="#FFFFFF"></path>
    </g>
</svg>