<?xml version="1.0" encoding="UTF-8" standalone="no"?>
<svg width="16px" height="15px" viewBox="0 0 16 15" version="1.1" xmlns="http://www.w3.org/2000/svg" xmlns:xlink="http://www.w3.org/1999/xlink">
    <!-- Generator: Sketch 41.1 (35376) - http://www.bohemiancoding.com/sketch -->
    <title>instagram</title>
    <desc>Created with Sketch.</desc>
    <defs></defs>
    <g id="Page-1" stroke="none" stroke-width="1" fill="none" fill-rule="evenodd">
        <path d="M3.50558036,4.84933036 L3.50558036,14.8035714 L0.190848214,14.8035714 L0.190848214,4.84933036 L3.50558036,4.84933036 Z M3.71651786,1.77566964 C3.72321432,2.26451137 3.55413119,2.67298943 3.20926339,3.00111607 C2.8643956,3.32924271 2.4107171,3.49330357 1.84821429,3.49330357 L1.828125,3.49330357 C1.27901511,3.49330357 0.837055246,3.32924271 0.502232143,3.00111607 C0.16740904,2.67298943 0,2.26451137 0,1.77566964 C0,1.28013145 0.172431311,0.869979302 0.517299107,0.545200893 C0.862166903,0.220422483 1.31249722,0.0580357143 1.86830357,0.0580357143 C2.42410992,0.0580357143 2.86941797,0.220422483 3.20424107,0.545200893 C3.53906417,0.869979302 3.7098214,1.28013145 3.71651786,1.77566964 Z M8.63839286,6.26385654 C8.76595153,6.06281258 8.89653071,5.88594832 9.03013393,5.73325893 C9.17075963,5.57254384 9.35993185,5.39843844 9.59765625,5.2109375 C9.83538065,5.02343656 10.1266724,4.8777907 10.4715402,4.77399554 C10.816408,4.67020037 11.1997747,4.61830357 11.6216518,4.61830357 C12.7667468,4.61830357 13.6874965,4.99832209 14.3839286,5.75837054 C15.0803606,6.51841898 15.4285714,7.6316891 15.4285714,9.09821429 L15.4285714,14.8035714 L12.1238839,14.8035714 L12.1238839,9.47991071 C12.1238839,8.7767822 11.9882826,8.22600646 11.7170759,7.82756696 C11.4458692,7.42912747 11.0223243,7.22991071 10.4464286,7.22991071 C10.0245515,7.22991071 9.67131839,7.34542295 9.38671875,7.57645089 C9.10211911,7.80747883 8.88950963,8.09374829 8.74888393,8.43526786 C8.67522285,8.63616172 8.63839286,8.90736436 8.63839286,9.24888393 L8.63839286,14.8035714 L5.33370536,14.8035714 C5.34709828,12.1316831 5.35379464,9.96541009 5.35379464,8.3046875 C5.35379464,6.64396491 5.35044646,5.65290339 5.34375,5.33147321 L5.33370536,4.84933036 L8.63839286,4.84933036 L8.63839286,6.26385654 L8.63839286,6.26385654 Z" id="instagram" fill="#FFFFFF"></path>
    </g>
</svg>