<?xml version="1.0" encoding="UTF-8" standalone="no"?>
<svg width="8px" height="13px" viewBox="0 0 8 13" version="1.1" xmlns="http://www.w3.org/2000/svg" xmlns:xlink="http://www.w3.org/1999/xlink">
    <!-- Generator: Sketch 40.1 (33804) - http://www.bohemiancoding.com/sketch -->
    <title></title>
    <desc>Created with Sketch.</desc>
    <defs></defs>
    <g id="Page-1" stroke="none" stroke-width="1" fill="none" fill-rule="evenodd">
        <path d="M10.0859375,3.5 C10.0859375,3.77604305 9.9895843,4.0104157 9.796875,4.203125 L4.7109375,9.2890625 C4.51301984,9.48698016 4.27604305,9.5859375 4,9.5859375 C3.71874859,9.5859375 3.48437594,9.48698016 3.296875,9.2890625 L-1.7890625,4.203125 C-1.98698016,4.01562406 -2.0859375,3.78125141 -2.0859375,3.5 C-2.0859375,3.22395695 -1.98698016,2.98698016 -1.7890625,2.7890625 L-1.2109375,2.203125 C-1.00781148,2.0104157 -0.770834688,1.9140625 -0.5,1.9140625 C-0.223956953,1.9140625 0.0104157031,2.0104157 0.203125,2.203125 L4,6 L7.796875,2.203125 C7.9895843,2.0104157 8.22395695,1.9140625 8.5,1.9140625 C8.77083469,1.9140625 9.00781148,2.0104157 9.2109375,2.203125 L9.796875,2.7890625 C9.9895843,2.99218852 10.0859375,3.22916531 10.0859375,3.5 L10.0859375,3.5 Z" id="" fill="#0071BC" transform="translate(4.207031, 5.957031) scale(-1, -1) rotate(90.000000) translate(-4.207031, -5.957031) "></path>
    </g>
</svg>